<svg xmlns="http://www.w3.org/2000/svg" width="500" height="500" viewBox="0 0 500 500" version="1.1"><path d="" stroke="none" fill="#2d2d2d" fill-rule="evenodd"/><path d="M 223.250 211.119 C 216.765 212.991, 218.453 264, 225 264 C 230 264, 230 264, 230.037 257.250 C 230.057 253.537, 230.169 241.387, 230.287 230.250 C 230.525 207.584, 231.002 208.880, 223.250 211.119 M 102.909 212.493 C 79.888 219.887, 78.321 252.188, 100.500 262.141 C 110.414 266.591, 124.496 264.423, 131.058 257.438 C 134.911 253.337, 128.130 246.871, 123.799 250.516 C 112.449 260.066, 96.014 252.605, 96.004 237.898 C 95.994 223.750, 111.850 215.920, 122.758 224.685 C 126.721 227.870, 126.721 227.870, 130.378 224.125 C 137.898 216.424, 117.528 207.798, 102.909 212.493 M 341.332 211.901 C 338.115 212.726, 329.489 217.400, 328.637 218.778 C 327.329 220.895, 333.801 226.489, 335.664 224.853 C 346.956 214.938, 362.409 221.747, 355.020 233.382 C 353.931 235.097, 347.889 241, 341.593 246.500 C 323.436 262.364, 324.134 264, 349.057 264 C 373.167 264, 379.891 255.812, 356.270 255.217 C 345.039 254.935, 345.039 254.935, 353.942 246.944 C 375.342 227.734, 367.250 205.248, 341.332 211.901 M 384 227.545 C 364.309 250.198, 364.364 252, 384.744 252 C 399.598 252, 399.598 252, 399.190 255.497 C 398.376 262.468, 399.427 264, 405.019 264 C 410 264, 410 264, 410 258 C 410 252, 410 252, 413 252 C 415.889 252, 416 251.833, 416 247.500 C 416 243.167, 415.889 243, 413 243 C 410 243, 410 243, 410 227.500 C 410 204.599, 403.938 204.609, 384 227.545 M 150.564 225.123 C 141.636 227.216, 135.988 234.820, 136.016 244.710 C 136.066 262.141, 155.250 270.632, 170.886 260.144 C 173.767 258.211, 166.064 252.915, 162.815 254.596 C 157.612 257.286, 151.353 256.054, 147.772 251.633 C 144.938 248.134, 145.408 248, 160.500 248 C 177.108 248, 176.510 248.447, 173.494 238.293 C 171.711 232.289, 166.126 226.684, 160.321 225.072 C 155.986 223.868, 155.918 223.869, 150.564 225.123 M 246.500 225.064 C 240.862 226.414, 237 228.084, 237 229.171 C 237 230.093, 239.846 236.014, 240.276 235.985 C 240.399 235.977, 242.300 235.321, 244.500 234.529 C 253.131 231.419, 260 233.605, 260 239.462 C 260 241.888, 259.903 241.916, 253.518 241.319 C 241.847 240.230, 235 244.417, 235 252.646 C 235 262.769, 246.215 267.529, 258.250 262.515 C 259.302 262.077, 260 262.228, 260 262.893 C 260 263.555, 262.011 264, 265 264 C 270 264, 270 264, 270 249.148 C 270 227.419, 263.686 220.948, 246.500 225.064 M 292.942 224.948 C 291.534 225.375, 289.397 226.252, 288.192 226.897 C 286.379 227.868, 286 227.805, 286 226.535 C 286 225.360, 284.829 225, 281 225 C 276 225, 276 225, 276 244.500 C 276 264, 276 264, 281 264 C 286 264, 286 264, 286 250.655 C 286 235.216, 286.799 233.545, 294.187 233.545 C 301.013 233.545, 302 235.765, 302 251.111 C 302 264, 302 264, 307.611 264 C 313.222 264, 313.222 264, 312.852 249.750 C 312.314 229.075, 305.856 221.029, 292.942 224.948 M 390.243 233.562 C 381.986 243, 381.986 243, 390.411 243 C 398.836 243, 398.836 243, 399.168 236.110 C 399.804 222.907, 399.613 222.852, 390.243 233.562 M 176.400 228.701 C 177.140 230.790, 180.503 239.560, 183.873 248.189 C 191.428 267.534, 191.074 271, 181.545 271 C 178 271, 178 271, 178 275.620 C 178 283.600, 192.186 280.951, 197.431 271.992 C 208.694 252.758, 217.648 225.486, 212.797 225.193 C 206.592 224.818, 207.301 224.005, 201.405 238.250 C 195.482 252.561, 196.217 252.596, 190.893 237.750 C 186.500 225.500, 186.500 225.500, 180.777 225.201 C 175.054 224.902, 175.054 224.902, 176.400 228.701 M 148.923 235.923 C 144.381 240.465, 145.022 241, 155 241 C 164.314 241, 165.410 240.419, 162.718 236.913 C 159.136 232.248, 153.036 231.810, 148.923 235.923 M 245.570 250.204 C 242.221 254.985, 249.973 258.862, 257.308 256.073 C 260.430 254.886, 261.204 249.676, 258.418 248.607 C 254.413 247.070, 247.131 247.975, 245.570 250.204 M 90.485 284.250 C 90.773 285.488, 91.369 288.300, 91.810 290.500 C 92.723 295.054, 99.995 295.344, 155.500 293.045 C 180.932 291.992, 203.030 291.097, 255.500 288.994 C 269.800 288.421, 291.625 287.530, 304 287.014 C 316.375 286.497, 339.775 285.560, 356 284.931 C 372.225 284.301, 391.125 283.450, 398 283.038 C 404.875 282.627, 338.379 282.225, 250.231 282.145 C 89.962 282, 89.962 282, 90.485 284.250" stroke="none" fill="#1359e2" fill-rule="evenodd"/><path d="M 0 250.002 C 0 500.004, 0 500.004, 250.250 499.752 C 500.500 499.500, 500.500 499.500, 500.752 249.750 C 501.004 0, 501.004 0, 250.502 0 C 0 0, 0 0, 0 250.002 M 0.492 250.500 C 0.492 388, 0.608 444.101, 0.750 375.170 C 0.892 306.238, 0.892 193.738, 0.750 125.170 C 0.608 56.601, 0.492 113, 0.492 250.500 M 223.250 211.119 C 216.765 212.991, 218.453 264, 225 264 C 230 264, 230 264, 230.037 257.250 C 230.057 253.537, 230.169 241.387, 230.287 230.250 C 230.525 207.584, 231.002 208.880, 223.250 211.119 M 102.909 212.493 C 79.888 219.887, 78.321 252.188, 100.500 262.141 C 110.414 266.591, 124.496 264.423, 131.058 257.438 C 134.911 253.337, 128.130 246.871, 123.799 250.516 C 112.449 260.066, 96.014 252.605, 96.004 237.898 C 95.994 223.750, 111.850 215.920, 122.758 224.685 C 126.721 227.870, 126.721 227.870, 130.378 224.125 C 137.898 216.424, 117.528 207.798, 102.909 212.493 M 341.332 211.901 C 338.115 212.726, 329.489 217.400, 328.637 218.778 C 327.329 220.895, 333.801 226.489, 335.664 224.853 C 346.956 214.938, 362.409 221.747, 355.020 233.382 C 353.931 235.097, 347.889 241, 341.593 246.500 C 323.436 262.364, 324.134 264, 349.057 264 C 373.167 264, 379.891 255.812, 356.270 255.217 C 345.039 254.935, 345.039 254.935, 353.942 246.944 C 375.342 227.734, 367.250 205.248, 341.332 211.901 M 384 227.545 C 364.309 250.198, 364.364 252, 384.744 252 C 399.598 252, 399.598 252, 399.190 255.497 C 398.376 262.468, 399.427 264, 405.019 264 C 410 264, 410 264, 410 258 C 410 252, 410 252, 413 252 C 415.889 252, 416 251.833, 416 247.500 C 416 243.167, 415.889 243, 413 243 C 410 243, 410 243, 410 227.500 C 410 204.599, 403.938 204.609, 384 227.545 M 150.564 225.123 C 141.636 227.216, 135.988 234.820, 136.016 244.710 C 136.066 262.141, 155.250 270.632, 170.886 260.144 C 173.767 258.211, 166.064 252.915, 162.815 254.596 C 157.612 257.286, 151.353 256.054, 147.772 251.633 C 144.938 248.134, 145.408 248, 160.500 248 C 177.108 248, 176.510 248.447, 173.494 238.293 C 171.711 232.289, 166.126 226.684, 160.321 225.072 C 155.986 223.868, 155.918 223.869, 150.564 225.123 M 246.500 225.064 C 240.862 226.414, 237 228.084, 237 229.171 C 237 230.093, 239.846 236.014, 240.276 235.985 C 240.399 235.977, 242.300 235.321, 244.500 234.529 C 253.131 231.419, 260 233.605, 260 239.462 C 260 241.888, 259.903 241.916, 253.518 241.319 C 241.847 240.230, 235 244.417, 235 252.646 C 235 262.769, 246.215 267.529, 258.250 262.515 C 259.302 262.077, 260 262.228, 260 262.893 C 260 263.555, 262.011 264, 265 264 C 270 264, 270 264, 270 249.148 C 270 227.419, 263.686 220.948, 246.500 225.064 M 292.942 224.948 C 291.534 225.375, 289.397 226.252, 288.192 226.897 C 286.379 227.868, 286 227.805, 286 226.535 C 286 225.360, 284.829 225, 281 225 C 276 225, 276 225, 276 244.500 C 276 264, 276 264, 281 264 C 286 264, 286 264, 286 250.655 C 286 235.216, 286.799 233.545, 294.187 233.545 C 301.013 233.545, 302 235.765, 302 251.111 C 302 264, 302 264, 307.611 264 C 313.222 264, 313.222 264, 312.852 249.750 C 312.314 229.075, 305.856 221.029, 292.942 224.948 M 390.243 233.562 C 381.986 243, 381.986 243, 390.411 243 C 398.836 243, 398.836 243, 399.168 236.110 C 399.804 222.907, 399.613 222.852, 390.243 233.562 M 176.400 228.701 C 177.140 230.790, 180.503 239.560, 183.873 248.189 C 191.428 267.534, 191.074 271, 181.545 271 C 178 271, 178 271, 178 275.620 C 178 283.600, 192.186 280.951, 197.431 271.992 C 208.694 252.758, 217.648 225.486, 212.797 225.193 C 206.592 224.818, 207.301 224.005, 201.405 238.250 C 195.482 252.561, 196.217 252.596, 190.893 237.750 C 186.500 225.500, 186.500 225.500, 180.777 225.201 C 175.054 224.902, 175.054 224.902, 176.400 228.701 M 148.923 235.923 C 144.381 240.465, 145.022 241, 155 241 C 164.314 241, 165.410 240.419, 162.718 236.913 C 159.136 232.248, 153.036 231.810, 148.923 235.923 M 245.570 250.204 C 242.221 254.985, 249.973 258.862, 257.308 256.073 C 260.430 254.886, 261.204 249.676, 258.418 248.607 C 254.413 247.070, 247.131 247.975, 245.570 250.204 M 90.485 284.250 C 90.773 285.488, 91.369 288.300, 91.810 290.500 C 92.723 295.054, 99.995 295.344, 155.500 293.045 C 180.932 291.992, 203.030 291.097, 255.500 288.994 C 269.800 288.421, 291.625 287.530, 304 287.014 C 316.375 286.497, 339.775 285.560, 356 284.931 C 372.225 284.301, 391.125 283.450, 398 283.038 C 404.875 282.627, 338.379 282.225, 250.231 282.145 C 89.962 282, 89.962 282, 90.485 284.250" stroke="none" fill="#f3f3f3" fill-rule="evenodd"/></svg>